<?xml version="1.0" encoding="utf-8" ?>
<svg xmlns="http://www.w3.org/2000/svg" xmlns:cc="http://creativecommons.org/ns" xmlns:dc="http://purl.org/dc/elements/1.1/" xmlns:ev="http://www.w3.org/2001/xml-events" xmlns:inkscape="http://www.inkscape.org/namespaces/inkscape" xmlns:rdf="http://www.w3.org/1999/02/22-rdf-syntax-ns" xmlns:sodipodi="http://sodipodi.sourceforge.net/DTD/sodipodi-0.dtd" xmlns:xlink="http://www.w3.org/1999/xlink" baseProfile="tiny" height="28.0cm" version="1.2" viewBox="0 0 812.5984251968505 1058.2677165354332" width="21.5cm">
  <g fill="none" id="layer1" inkscape:groupmode="layer" inkscape:label="Layer 1" stroke="#000000" style="display:inline">
    <polygon points="756.4059,378.453 755.9518,396.9746 754.5906,415.4518 752.3256,433.84 749.1621,452.0952 745.1078,470.1734 740.1725,488.0312 734.368,505.6257 727.7083,522.9146 720.0476,540.1982 711.7108,556.7438 702.5733,572.861 692.6568,588.511 681.9854,603.6562 670.5846,618.2603 658.4818,632.2882 645.7061,645.7061 632.2882,658.4818 618.2603,670.5846 603.6562,681.9854 588.511,692.6568 572.861,702.5733 556.7438,711.7108 540.1982,720.0476 522.9146,727.7083 505.6257,734.368 488.0312,740.1725 470.1734,745.1078 452.0952,749.1621 433.84,752.3256 415.4518,754.5906 396.9746,755.9518 378.453,756.4059 359.9313,755.9518 341.4541,754.5906 323.0659,752.3256 304.8107,749.1621 286.7325,745.1078 268.8747,740.1725 251.2802,734.368 233.9913,727.7083 217.0496,720.2093 200.4956,711.8891 184.3693,702.7676 168.395,692.6568 153.2497,681.9854 138.6456,670.5846 124.6178,658.4818 111.1999,645.7061 98.4242,632.2882 86.3214,618.2603 74.9205,603.6562 64.2491,588.511 54.3327,572.861 45.1951,556.7438 36.8583,540.1982 29.3424,523.264 22.6653,505.9817 16.7334,488.0312 11.7981,470.1734 7.7438,452.0952 4.5804,433.84 2.3153,415.4518 0.9541,396.9746 0.5,378.453 0.9541,359.9313 2.3153,341.4541 4.5804,323.0659 7.7438,304.8107 11.7981,286.7325 16.7334,268.8747 22.5379,251.2802 29.1977,233.9913 36.8583,216.7077 45.1951,200.1621 54.3327,184.045 64.2491,168.395 74.9205,153.2497 86.3214,138.6456 98.4242,124.6178 111.1999,111.1999 124.6178,98.4242 138.6456,86.3214 153.2497,74.9205 168.395,64.2491 184.045,54.3327 200.1621,45.1951 216.7077,36.8583 233.9913,29.1977 251.2802,22.5379 268.8747,16.7334 286.7325,11.7981 304.8107,7.7438 323.0659,4.5804 341.4541,2.3153 359.9313,0.9541 378.453,0.5 396.9746,0.9541 415.4518,2.3153 433.84,4.5804 452.0952,7.7438 470.1734,11.7981 488.0312,16.7334 505.6257,22.5379 522.9146,29.1977 540.1982,36.8583 556.7438,45.1951 572.861,54.3327 588.511,64.2491 603.6562,74.9205 618.2603,86.3214 632.2882,98.4242 645.7061,111.1999 658.4818,124.6178 670.8243,138.938 682.2106,153.5535 692.8668,168.7094 702.7676,184.3693 711.8891,200.4956 720.2093,217.0496 727.7083,233.9913 734.368,251.2802 740.1725,268.8747 745.1078,286.7325 749.1621,304.8107 752.3256,323.0659 754.5906,341.4541 755.9518,359.9313"/>
    <polygon points="506.814,207.1115 506.0598,214.624 503.973,221.4878 500.6269,227.8335 495.8773,233.7028 490.0559,238.5109 483.3949,242.0659 476.5312,244.1527 469.0187,244.9068 461.5061,244.1527 454.2934,241.9203 447.6683,238.2988 442.16,233.7028 437.4104,227.8335 434.0643,221.4878 431.9775,214.624 431.2234,207.1115 431.9775,199.599 434.0643,192.7353 437.6193,186.0743 442.16,180.5202 447.9814,175.7122 454.2934,172.3027 461.5061,170.0704 469.0187,169.3162 476.5312,170.0704 483.7439,172.3027 490.0559,175.7122 495.8773,180.5202 500.6269,186.3895 503.973,192.7353 506.0598,199.599"/>
    <polygon points="354.6582,260.8966 356.0453,272.5029 358.5183,282.2412 362.0627,290.4304 366.5733,296.7789 371.8861,300.9797 377.7707,302.7097 383.6905,301.7253 389.1031,298.2131 394.3278,291.5553 398.251,282.7623 400.9253,271.9385 402.251,259.3795"/>
    <polygon points="323.7417,204.6576 322.9875,212.1702 320.9007,219.0339 317.5546,225.3797 312.805,231.2489 306.9836,236.057 300.3226,239.612 293.4589,241.6988 285.9464,242.4529 278.4338,241.6988 271.2211,239.4664 264.596,235.845 259.0877,231.2489 254.3381,225.3797 250.992,219.0339 248.9052,212.1702 248.1511,204.6576 248.9052,197.1451 250.992,190.2814 254.3381,183.9356 259.0877,178.0664 264.9091,173.2583 271.2211,169.8489 278.4338,167.6165 285.9464,166.8624 293.4589,167.6165 300.6716,169.8489 306.9836,173.2583 312.805,178.0664 317.5546,183.9356 320.9007,190.2814 322.9875,197.1451"/>
  </g>
</svg>
